<svg height='100px' width='100px'  fill="#000000" xmlns:dc="http://purl.org/dc/elements/1.1/" xmlns:cc="http://creativecommons.org/ns#" xmlns:rdf="http://www.w3.org/1999/02/22-rdf-syntax-ns#" xmlns:svg="http://www.w3.org/2000/svg" xmlns="http://www.w3.org/2000/svg" xmlns:sodipodi="http://sodipodi.sourceforge.net/DTD/sodipodi-0.dtd" xmlns:inkscape="http://www.inkscape.org/namespaces/inkscape" version="1.1" x="0px" y="0px" viewBox="0 0 100 100"><g transform="translate(0,-952.36218)"><path style="text-indent:0;text-transform:none;direction:ltr;block-progression:tb;baseline-shift:baseline;color:#000000;enable-background:accumulate;" d="m 46.018623,964.37179 c -2.7673,0.0706 -5.5469,0.43894 -8.2812,1.125 -20.332799,5.10181 -32.6954999,25.79217 -27.5938,46.12491 5.101801,20.3328 25.7609,32.6956 46.0938,27.5938 20.3328,-5.1019 32.7268,-25.7609 27.625,-46.0937 a 2.0001999,2.0001999 0 1 0 -3.875,0.96875 c 4.5757,18.23595 -6.4827,36.67425 -24.7188,41.24995 -18.236,4.5757 -36.674299,-6.4515 -41.249999,-24.6875 -4.5756009,-18.23602 6.451499,-36.70551 24.687499,-41.28121 9.7882,-2.45598 20.1595,-0.41566 28.3125,5.53126 a 2.0001999,2.0001999 0 1 0 2.375,-3.21876 c -6.8325,-4.98367 -15.0729,-7.52424 -23.375,-7.3125 z m 42.875,1.96875 a 2.0001999,2.0001999 0 0 0 -1.3437,0.625 c -10.7839,11.28279 -26.6372,28.95752 -37.6875,40.59366 l -15.5313,-13.71865 a 2.003476,2.003476 0 1 0 -2.6562,3 l 17,14.99995 a 2.0001999,2.0001999 0 0 0 2.7812,-0.094 c 11.1586,-11.6744 27.905,-30.42434 38.9688,-41.99996 a 2.0001999,2.0001999 0 0 0 -1.5313,-3.40625 z" fill="#000000" fill-opacity="1" stroke="none" marker="none" visibility="visible" display="inline" overflow="visible"></path></g></svg>